<svg xmlns="http://www.w3.org/2000/svg" viewBox="0 0 860 420" role="img" aria-label="DCKI Immobilier">
  <defs>
    <linearGradient id="dckiGrad" x1="0" y1="0" x2="1" y2="0">
      <stop offset="0" stop-color="#0b2a3a"/>
      <stop offset="0.58" stop-color="#0b2a3a"/>
      <stop offset="1" stop-color="#c8a14a"/>
    </linearGradient>
    <style>
      .serif{font-family: Georgia, "Times New Roman", Times, serif;font-weight:700;letter-spacing:0.02em}
      .sans{font-family: system-ui, -apple-system, Segoe UI, Roboto, Arial, sans-serif;font-weight:500;letter-spacing:0.35em}
    </style>
  </defs>

  <rect width="860" height="420" fill="none"/>

  <g transform="translate(170,30)" fill="none" stroke="#2a2f33" stroke-width="3" stroke-linecap="round" stroke-linejoin="round" opacity="0.9">
    <path d="M50 140h390l70-50h130"/>
    <path d="M50 140v110h590v-160"/>
    <path d="M565 90v-35h90v35"/>
    <path d="M250 250v-75h160v75"/>
    <path d="M60 250h120v-65H60z"/>
    <path d="M450 250h170v-85H450z"/>
    <path d="M450 190h170"/>
    <path d="M70 275c100 20 220 20 320 0s220-20 320 0" opacity="0.25"/>
  </g>

  <text x="430" y="330" text-anchor="middle" class="serif" font-size="156" fill="url(#dckiGrad)">DCKI</text>
  <g transform="translate(120,355)" opacity="0.8" stroke="#5d646a" stroke-width="2">
    <line x1="0" y1="20" x2="250" y2="20"/>
    <line x1="370" y1="20" x2="620" y2="20"/>
  </g>
  <text x="430" y="388" text-anchor="middle" class="sans" font-size="30" fill="#4e555b">IMMOBILIER</text>
</svg>
